<svg width="24" height="24" viewBox="0 0 24 24" fill="none" xmlns="http://www.w3.org/2000/svg">
<path d="M21.44 11.0509L12.25 20.2409C11.1242 21.3667 9.5972 21.9992 8.00502 21.9992C6.41283 21.9992 4.88586 21.3667 3.76002 20.2409C2.63417 19.1151 2.00168 17.5881 2.00168 15.9959C2.00168 14.4037 2.63417 12.8767 3.76002 11.7509L12.95 2.5609C13.7006 1.81033 14.7186 1.38867 15.78 1.38867C16.8415 1.38867 17.8595 1.81033 18.61 2.5609C19.3606 3.31146 19.7822 4.32944 19.7822 5.3909C19.7822 6.45235 19.3606 7.47033 18.61 8.2209L9.41002 17.4109C9.03473 17.7862 8.52574 17.997 7.99502 17.997C7.46429 17.997 6.9553 17.7862 6.58002 17.4109C6.20473 17.0356 5.9939 16.5266 5.9939 15.9959C5.9939 15.4652 6.20473 14.9562 6.58002 14.5809L15.07 6.1009" stroke="#1E2022" stroke-linecap="round" stroke-linejoin="round"/>
</svg>
